<?xml version="1.0" standalone="no"?>
<!DOCTYPE svg PUBLIC "-//W3C//DTD SVG 20010904//EN"
 "http://www.w3.org/TR/2001/REC-SVG-20010904/DTD/svg10.dtd">
<svg version="1.0" xmlns="http://www.w3.org/2000/svg"
 width="300.000000pt" height="300.000000pt" viewBox="0 0 300.000000 300.000000"
 preserveAspectRatio="xMidYMid meet">
<metadata>
Created by potrace 1.11, written by Peter Selinger 2001-2013
</metadata>
<g transform="translate(0.000000,300.000000) scale(0.100000,-0.100000)"
fill="#000000" stroke="none">
<path d="M0 1500 l0 -1500 1500 0 1500 0 0 1500 0 1500 -1500 0 -1500 0 0
-1500z m2334 699 c297 -108 365 -139 411 -185 63 -62 66 -145 8 -210 -27 -31
-440 -362 -512 -411 -84 -58 -189 16 -151 106 7 19 93 96 236 212 123 101 220
186 216 190 -4 3 -101 39 -217 79 -115 40 -231 83 -256 96 -98 49 -127 127
-70 185 18 18 40 29 57 29 15 0 140 -41 278 -91z m-82 -269 c45 -13 68 -43 68
-88 0 -70 -29 -91 -165 -116 -191 -37 -580 -140 -643 -172 -1 -1 23 -41 53
-90 73 -116 100 -202 99 -319 0 -104 -20 -175 -70 -250 -80 -120 -254 -197
-409 -180 -137 15 -298 131 -361 260 -26 55 -29 69 -29 165 0 99 2 109 34 175
26 54 55 91 129 163 52 51 93 94 91 96 -2 1 -47 15 -99 29 -110 30 -258 51
-485 67 -88 6 -174 13 -192 16 -40 6 -63 37 -63 84 0 88 57 106 304 97 257 -9
449 -44 649 -119 131 -49 146 -48 312 15 128 48 282 89 534 142 176 37 191 39
243 25z"/>
<path d="M1260 1443 c-23 -9 -170 -123 -211 -164 -81 -81 -68 -219 28 -298
118 -97 291 -72 355 52 14 28 23 67 26 118 4 66 1 82 -23 132 -29 63 -108 153
-140 160 -11 3 -27 3 -35 0z"/>
</g>
</svg>
